<?xml version="1.0" encoding="UTF-8"?>
<!DOCTYPE svg PUBLIC "-//W3C//DTD SVG 1.1//EN" "http://www.w3.org/Graphics/SVG/1.1/DTD/svg11.dtd">
<svg xmlns="http://www.w3.org/2000/svg" version="1.1" width="432px" height="178px" style="shape-rendering:geometricPrecision; text-rendering:geometricPrecision; image-rendering:optimizeQuality; fill-rule:evenodd; clip-rule:evenodd" xmlns:xlink="http://www.w3.org/1999/xlink">
<g><path style="opacity:1" fill="#050a1a" d="M -0.5,-0.5 C 143.5,-0.5 287.5,-0.5 431.5,-0.5C 431.5,58.8333 431.5,118.167 431.5,177.5C 287.5,177.5 143.5,177.5 -0.5,177.5C -0.5,118.167 -0.5,58.8333 -0.5,-0.5 Z"/></g>
<g><path style="opacity:1" fill="#f7f7f7" d="M 116.5,59.5 C 114.794,55.6213 111.794,53.1213 107.5,52C 104.072,51.2989 100.738,51.6323 97.5,53C 86.9458,62.2208 77.1125,72.0541 68,82.5C 65.0754,93.8199 69.242,100.987 80.5,104C 76.9782,107.522 73.4782,111.022 70,114.5C 58.0139,108.203 52.5139,98.2033 53.5,84.5C 54.2294,79.7069 56.0627,75.3736 59,71.5C 68.5,62 78,52.5 87.5,43C 101.046,35.9133 113.546,37.4133 125,47.5C 131.198,55.0909 133.198,63.7576 131,73.5C 129.889,77.9442 127.889,81.9442 125,85.5C 118.333,92.1667 111.667,98.8333 105,105.5C 105.55,99.1904 105.55,92.8571 105,86.5C 109.368,82.467 113.368,78.1337 117,73.5C 119.141,68.5911 118.974,63.9245 116.5,59.5 Z"/></g>
<g><path style="opacity:1" fill="#902c3d" d="M 189.5,49.5 C 195.156,49.8674 196.989,52.8674 195,58.5C 192.313,61.2039 189.813,61.0372 187.5,58C 185.713,54.4069 186.38,51.5736 189.5,49.5 Z"/></g>
<g><path style="opacity:1" fill="#eeeff0" d="M 299.5,49.5 C 306.019,49.5358 308.352,52.7025 306.5,59C 301.117,61.9614 297.784,60.4614 296.5,54.5C 297.092,52.5775 298.092,50.9108 299.5,49.5 Z"/></g>
<g><path style="opacity:1" fill="#912c3d" d="M 204.5,110.5 C 204.756,103.776 204.423,97.109 203.5,90.5C 204.813,84.3568 204.813,78.1901 203.5,72C 203.264,64.5095 206.264,62.6762 212.5,66.5C 225.143,61.6475 233.31,65.6475 237,78.5C 239.847,89.6885 238.847,100.355 234,110.5C 232.442,112.359 230.609,113.859 228.5,115C 223.146,115.529 217.813,115.362 212.5,114.5C 212.666,120.509 212.499,126.509 212,132.5C 208.841,135.341 206.508,134.674 205,130.5C 204.5,123.842 204.334,117.175 204.5,110.5 Z"/></g>
<g><path style="opacity:1" fill="#ededee" d="M 297.5,66.5 C 302.727,65.237 305.56,67.237 306,72.5C 307.338,86.5237 307.338,100.524 306,114.5C 303.667,117.167 301.333,117.167 299,114.5C 298.192,112.577 297.692,110.577 297.5,108.5C 297.865,94.4882 297.865,80.4882 297.5,66.5 Z"/></g>
<g><path style="opacity:1" fill="#f4f4f5" d="M 314.5,66.5 C 321.194,65.6964 324.028,68.6964 323,75.5C 324.573,70.9291 327.74,68.0957 332.5,67C 340.136,65.1055 346.636,66.9388 352,72.5C 352.411,76.2304 353.744,79.5637 356,82.5C 356.667,92.1667 356.667,101.833 356,111.5C 354.936,115.295 352.436,116.461 348.5,115C 345.878,111.465 345.878,107.965 348.5,104.5C 346.317,100.526 345.984,96.3592 347.5,92C 347.502,86.6531 346.002,81.8198 343,77.5C 339.635,75.1173 336.135,75.1173 332.5,77.5C 330.355,79.1435 328.355,80.9769 326.5,83C 325.139,84.927 324.306,87.0937 324,89.5C 323.787,97.8763 323.121,106.21 322,114.5C 319.667,117.167 317.333,117.167 315,114.5C 314.796,101.807 314.296,89.1406 313.5,76.5C 313.573,73.164 313.906,69.8306 314.5,66.5 Z"/></g>
<g><path style="opacity:1" fill="#f1f2f3" d="M 364.5,47.5 C 367.47,48.3084 369.303,50.3084 370,53.5C 371.693,64.1598 372.359,74.8265 372,85.5C 377.49,80.182 382.656,74.8487 387.5,69.5C 394.118,68.275 395.951,70.6084 393,76.5C 389.678,79.6557 386.512,82.989 383.5,86.5C 387.348,94.8917 391.848,102.892 397,110.5C 398.5,115.667 396.667,117.5 391.5,116C 386.005,108.662 380.671,101.162 375.5,93.5C 373.019,95.3885 371.685,97.8885 371.5,101C 372.513,105.471 372.679,109.971 372,114.5C 367.952,117.647 365.285,116.647 364,111.5C 363.885,93.4608 363.052,75.4608 361.5,57.5C 360.993,53.588 361.993,50.2546 364.5,47.5 Z"/></g>
<g><path style="opacity:1" fill="#f6f6f7" d="M 92.5,77.5 C 102.13,89.5304 102.963,102.197 95,115.5C 86.1667,124.333 77.3333,133.167 68.5,142C 54.612,151.355 41.4454,150.522 29,139.5C 19.8228,128.026 19.1561,116.026 27,103.5C 34.0359,96.6315 40.8693,89.6315 47.5,82.5C 48.6523,88.3265 49.1523,94.3265 49,100.5C 45,104.5 41,108.5 37,112.5C 32.8207,125.153 37.154,132.819 50,135.5C 53.5526,135.316 56.7193,134.15 59.5,132C 69.0679,123.102 77.9012,113.602 86,103.5C 88.6447,92.6356 84.4781,85.8022 73.5,83C 76.6583,79.1683 80.1583,75.6683 84,72.5C 86.9546,74.0569 89.788,75.7236 92.5,77.5 Z"/></g>
<g><path style="opacity:1" fill="#0a0817" d="M 212.5,73.5 C 216.182,73.3347 219.848,73.5014 223.5,74C 224.99,74.7455 225.99,75.9121 226.5,77.5C 227.098,82.6611 228.098,87.6611 229.5,92.5C 228.831,96.8432 228.164,101.177 227.5,105.5C 225.09,106.389 222.59,107.055 220,107.5C 217.502,107.083 215.002,106.749 212.5,106.5C 212.5,95.5 212.5,84.5 212.5,73.5 Z"/></g>
<g><path style="opacity:1" fill="#902c3d" d="M 195.5,87.5 C 195.292,93.3797 195.292,99.3797 195.5,105.5C 195.784,108.777 195.451,111.943 194.5,115C 192.5,115.667 190.5,115.667 188.5,115C 187.446,112.618 186.779,110.118 186.5,107.5C 186.557,106.391 186.89,105.391 187.5,104.5C 187.5,99.5 187.5,94.5 187.5,89.5C 187.5,88.8333 187.5,88.1667 187.5,87.5C 186.778,80.8414 186.611,74.1747 187,67.5C 189,66.1667 191,66.1667 193,67.5C 195.265,73.8949 196.098,80.5615 195.5,87.5 Z"/></g>
<g><path style="opacity:1" fill="#ececed" d="M 252.5,50.5 C 254.722,50.178 256.556,50.8446 258,52.5C 258.271,57.53 258.771,62.53 259.5,67.5C 258.721,76.3559 258.387,85.1892 258.5,94C 259.218,97.4605 259.718,100.961 260,104.5C 265.096,108.394 270.596,109.061 276.5,106.5C 280.35,106.596 284.35,106.762 288.5,107C 291.167,109.333 291.167,111.667 288.5,114C 278.328,116.429 267.994,117.095 257.5,116C 254.09,113.606 251.923,110.439 251,106.5C 250.729,101.47 250.229,96.47 249.5,91.5C 250.003,80.1909 250.17,68.8576 250,57.5C 250.168,54.8232 251.001,52.4898 252.5,50.5 Z"/></g>
<g><path style="opacity:1" fill="#0c101e" d="M 116.5,59.5 C 115.883,59.3893 115.383,59.056 115,58.5C 114.017,60.4484 112.85,62.2817 111.5,64C 108.009,65.3703 104.675,66.8703 101.5,68.5C 101.435,70.6957 100.768,72.6957 99.5,74.5C 97.1148,75.6615 94.7814,76.6615 92.5,77.5C 89.788,75.7236 86.9546,74.0569 84,72.5C 80.1583,75.6683 76.6583,79.1683 73.5,83C 84.4781,85.8022 88.6447,92.6356 86,103.5C 77.9012,113.602 69.0679,123.102 59.5,132C 56.7193,134.15 53.5526,135.316 50,135.5C 37.154,132.819 32.8207,125.153 37,112.5C 41,108.5 45,104.5 49,100.5C 49.1523,94.3265 48.6523,88.3265 47.5,82.5C 47.56,81.9569 47.8933,81.6236 48.5,81.5C 49.3857,82.325 49.719,83.325 49.5,84.5C 50.8333,84.5 52.1667,84.5 53.5,84.5C 52.5139,98.2033 58.0139,108.203 70,114.5C 73.4782,111.022 76.9782,107.522 80.5,104C 69.242,100.987 65.0754,93.8199 68,82.5C 77.1125,72.0541 86.9458,62.2208 97.5,53C 100.738,51.6323 104.072,51.2989 107.5,52C 111.794,53.1213 114.794,55.6213 116.5,59.5 Z"/></g>
<g><path style="opacity:1" fill="#000002" d="M 187.5,87.5 C 187.5,88.1667 187.5,88.8333 187.5,89.5C 182.94,88.6581 179.273,89.9914 176.5,93.5C 189.574,95.3135 189.24,96.3135 175.5,96.5C 176.576,103.578 180.576,106.245 187.5,104.5C 186.89,105.391 186.557,106.391 186.5,107.5C 184.167,107.5 181.833,107.5 179.5,107.5C 178.713,105.896 177.38,105.229 175.5,105.5C 170.434,97.8903 171.768,91.7237 179.5,87C 182.261,86.2782 184.927,86.4448 187.5,87.5 Z"/></g>
<g><path style="opacity:1" fill="#0f070e" d="M 195.5,87.5 C 196.552,87.3505 197.552,87.5172 198.5,88C 199.05,89.8446 200.05,91.3446 201.5,92.5C 202.182,91.7573 202.849,91.0906 203.5,90.5C 204.423,97.109 204.756,103.776 204.5,110.5C 203.681,107.695 203.181,104.695 203,101.5C 202.333,100.833 201.667,100.167 201,99.5C 199.414,101.67 198.08,104.004 197,106.5C 196.617,105.944 196.117,105.611 195.5,105.5C 195.292,99.3797 195.292,93.3797 195.5,87.5 Z"/></g>
<g><path style="opacity:1" fill="#8f2c3d" d="M 175.5,105.5 C 177.38,105.229 178.713,105.896 179.5,107.5C 179.739,109.467 179.406,111.301 178.5,113C 173.586,114.161 168.586,114.994 163.5,115.5C 155.929,115.514 148.262,115.347 140.5,115C 139.196,114.196 138.529,113.029 138.5,111.5C 146.338,98.4636 156.005,86.6302 167.5,76C 159.179,76.2901 150.846,76.2901 142.5,76C 138.929,69.701 140.929,66.8677 148.5,67.5C 150.56,67.5716 152.56,67.9049 154.5,68.5C 162.437,67.1166 170.437,66.6166 178.5,67C 179.516,67.5194 180.182,68.3527 180.5,69.5C 170.797,82.3313 160.464,94.8313 149.5,107C 158.098,105.673 166.765,105.173 175.5,105.5 Z"/></g>
<g><path style="opacity:1" fill="#0c0919" d="M 187.5,89.5 C 187.5,94.5 187.5,99.5 187.5,104.5C 180.576,106.245 176.576,103.578 175.5,96.5C 189.24,96.3135 189.574,95.3135 176.5,93.5C 179.273,89.9914 182.94,88.6581 187.5,89.5 Z"/></g>
</svg>
