<?xml version="1.0" encoding="UTF-8"?>
<svg xmlns="http://www.w3.org/2000/svg" version="1.1" width="320" height="320" viewBox="0 0 320 320"><rect x="0" y="0" width="320" height="320" fill="#ffffff"/><g transform="scale(12.8)"><g transform="translate(0,0)"><path fill-rule="evenodd" d="M8 0L8 1L9 1L9 2L10 2L10 3L11 3L11 1L13 1L13 2L12 2L12 4L11 4L11 5L10 5L10 4L9 4L9 5L10 5L10 8L9 8L9 6L8 6L8 8L9 8L9 9L8 9L8 10L6 10L6 9L7 9L7 8L6 8L6 9L5 9L5 8L3 8L3 9L2 9L2 8L0 8L0 10L3 10L3 11L1 11L1 12L0 12L0 17L1 17L1 15L3 15L3 16L4 16L4 17L5 17L5 16L6 16L6 17L8 17L8 18L9 18L9 17L11 17L11 19L12 19L12 18L14 18L14 17L15 17L15 16L16 16L16 19L13 19L13 20L11 20L11 23L10 23L10 22L9 22L9 21L10 21L10 20L8 20L8 22L9 22L9 23L8 23L8 25L9 25L9 23L10 23L10 24L11 24L11 23L12 23L12 21L13 21L13 20L14 20L14 22L13 22L13 23L14 23L14 24L16 24L16 25L18 25L18 24L16 24L16 22L15 22L15 21L18 21L18 22L17 22L17 23L18 23L18 22L19 22L19 21L21 21L21 16L22 16L22 18L24 18L24 19L23 19L23 20L25 20L25 18L24 18L24 16L25 16L25 14L24 14L24 13L25 13L25 10L24 10L24 9L25 9L25 8L24 8L24 9L19 9L19 8L18 8L18 9L17 9L17 8L14 8L14 7L15 7L15 4L14 4L14 3L15 3L15 2L14 2L14 0L11 0L11 1L9 1L9 0ZM16 1L16 2L17 2L17 1ZM16 3L16 5L17 5L17 3ZM12 4L12 5L11 5L11 7L12 7L12 9L10 9L10 10L9 10L9 11L10 11L10 10L12 10L12 11L13 11L13 13L11 13L11 12L10 12L10 14L13 14L13 13L16 13L16 12L17 12L17 13L18 13L18 14L19 14L19 15L18 15L18 16L19 16L19 15L20 15L20 16L21 16L21 15L20 15L20 13L21 13L21 14L23 14L23 13L24 13L24 12L21 12L21 10L20 10L20 12L19 12L19 11L18 11L18 10L19 10L19 9L18 9L18 10L17 10L17 9L16 9L16 10L17 10L17 11L13 11L13 10L15 10L15 9L14 9L14 8L13 8L13 7L14 7L14 4ZM12 5L12 7L13 7L13 5ZM16 6L16 7L17 7L17 6ZM3 9L3 10L4 10L4 12L1 12L1 14L3 14L3 15L4 15L4 16L5 16L5 15L6 15L6 16L7 16L7 15L9 15L9 14L8 14L8 12L7 12L7 11L6 11L6 10L4 10L4 9ZM12 9L12 10L13 10L13 9ZM22 10L22 11L24 11L24 10ZM5 11L5 12L6 12L6 13L7 13L7 12L6 12L6 11ZM18 12L18 13L19 13L19 12ZM6 14L6 15L7 15L7 14ZM14 14L14 15L12 15L12 16L11 16L11 15L10 15L10 16L11 16L11 17L12 17L12 16L15 16L15 14ZM16 14L16 16L17 16L17 14ZM23 15L23 16L24 16L24 15ZM17 17L17 20L20 20L20 17ZM18 18L18 19L19 19L19 18ZM23 21L23 22L20 22L20 23L19 23L19 24L21 24L21 25L22 25L22 24L24 24L24 25L25 25L25 21ZM21 23L21 24L22 24L22 23ZM12 24L12 25L13 25L13 24ZM0 0L0 7L7 7L7 0ZM1 1L1 6L6 6L6 1ZM2 2L2 5L5 5L5 2ZM18 0L18 7L25 7L25 0ZM19 1L19 6L24 6L24 1ZM20 2L20 5L23 5L23 2ZM0 18L0 25L7 25L7 18ZM1 19L1 24L6 24L6 19ZM2 20L2 23L5 23L5 20Z" fill="#000000"/></g></g></svg>
